<svg width="64" height="64" viewBox="0 0 64 64" fill="none" xmlns="http://www.w3.org/2000/svg">
<rect width="64" height="64" rx="6" fill="#111111"/>
<path fill-rule="evenodd" clip-rule="evenodd" d="M19.5258 17.0562C19.4876 17.0863 19.329 17.3175 19.1733 17.57C18.9316 17.9623 17.8205 19.726 17.5617 20.1282C17.3981 20.3824 15.8208 22.8862 15.6746 23.1237C15.456 23.4789 14.4052 25.1503 13.8053 26.0973C13.248 26.977 13.031 27.321 12.5364 28.1088C11.708 29.4287 11.3799 29.9484 10.8526 30.7763C10.1791 31.834 10 32.1248 10 32.1609C10 32.1779 10.1065 32.3801 10.2366 32.6101C10.8321 33.6627 12.6714 36.9318 12.9446 37.4232C13.1118 37.7239 13.3668 38.1765 13.5113 38.429C13.6558 38.6815 14.1082 39.4884 14.5166 40.2219C15.1843 41.4212 15.6816 42.3007 16.1069 43.0347C16.1881 43.1747 16.2545 43.2971 16.2545 43.3066C16.2545 43.3162 16.35 43.487 16.4666 43.6861C16.6499 43.999 17.4931 45.5178 18.1 46.6283L18.2912 46.9781L22.0512 46.9885C24.1191 46.9943 25.8335 46.9844 25.8609 46.9667C25.8882 46.9489 26.1971 46.472 26.5472 45.9068C26.8974 45.3416 27.2896 44.7119 27.4186 44.5074C27.5477 44.303 27.7626 43.9586 27.8963 43.7422C28.6662 42.4953 31.2304 38.3772 31.4088 38.101C31.4866 37.9808 31.7087 37.6266 31.9024 37.3139C32.0962 37.0012 32.8924 35.7222 33.6718 34.4715C34.4512 33.2208 35.3517 31.7745 35.6728 31.2574C35.9939 30.7403 36.4181 30.0614 36.6155 29.7487C36.8129 29.436 37.1181 28.9441 37.2938 28.6555C37.5813 28.1831 37.6835 28.0189 38.015 27.4966C38.0685 27.4124 38.3541 26.95 38.6498 26.469C40.3336 23.7298 40.3439 23.7153 40.7256 23.5343C41.0135 23.3979 41.3118 23.3977 41.6004 23.5337C41.8668 23.6594 41.9415 23.7414 42.2217 24.2169C42.9153 25.3938 44.0212 27.2523 44.1733 27.4966C44.2706 27.653 44.4124 27.8891 44.4884 28.0214C44.5644 28.1537 44.9595 28.8227 45.3663 29.5082C46.2148 30.9376 46.371 31.2542 46.4286 31.6609C46.507 32.2143 46.4059 32.4518 45.4391 33.9854C45.0886 34.5414 44.7015 35.1584 44.5788 35.3567C44.0219 36.2569 42.6187 38.4929 42.2118 39.1287C42.0144 39.4371 41.0785 40.9318 40.1035 42.4959C39.7662 43.037 39.0054 44.2531 38.4131 45.1983C37.8207 46.1435 37.336 46.9355 37.336 46.9584C37.336 46.9844 38.7044 47 40.9825 47H44.6289L45.0665 46.2894C45.3071 45.8986 45.6709 45.3131 45.8748 44.9884C46.0787 44.6638 46.5758 43.8668 46.9794 43.2174C47.3829 42.568 47.7943 41.9104 47.8934 41.7559C48.0966 41.4392 48.9505 40.0747 49.7838 38.7351C50.0905 38.2421 50.4166 37.7206 50.5086 37.5763C50.797 37.1234 52.2545 34.795 52.4932 34.4059C52.6185 34.2015 53.0089 33.5731 53.3606 33.0095C53.7123 32.4459 54 31.9582 54 31.9256C54 31.8931 53.816 31.5573 53.591 31.1793C53.1014 30.3567 52.4103 29.192 51.7042 27.9995C51.4193 27.5185 50.8813 26.6133 50.5085 25.988C49.169 23.7409 48.4518 22.5291 47.8554 21.5057C47.5961 21.0607 47.2749 20.5196 47.1416 20.3031C47.0083 20.0867 46.5396 19.2995 46.1001 18.5539C45.6606 17.8083 45.2692 17.1537 45.2304 17.0992L45.1598 17L41.6215 17.0117C38.1411 17.0232 38.0822 17.0248 38.018 17.1109C37.9821 17.159 37.8816 17.3164 37.7947 17.4607C37.7077 17.605 37.2459 18.3429 36.7684 19.1005C35.9328 20.4261 35.5636 21.0083 34.8406 22.1398C34.5438 22.6042 33.3256 24.5423 32.328 26.1372C31.99 26.6775 31.6596 27.2001 31.113 28.0585C30.9699 28.2833 30.6612 28.7752 30.4271 29.1517C30.193 29.5281 29.7849 30.1805 29.5203 30.6014C29.2556 31.0223 28.8369 31.6914 28.5896 32.0882C28.3424 32.4851 27.9784 33.0656 27.7806 33.3782C27.5829 33.6909 27.0908 34.478 26.6871 35.1274C26.2834 35.7768 25.8206 36.5148 25.6586 36.7673C25.4967 37.0198 25.0327 37.7578 24.6276 38.4071C23.3763 40.4132 23.396 40.3859 23.0775 40.5557C22.9589 40.619 22.8309 40.6373 22.5089 40.6372C21.8712 40.637 21.6829 40.5079 21.2978 39.8065C21.1789 39.59 20.9921 39.2555 20.8825 39.0631C20.773 38.8707 20.4316 38.2508 20.1239 37.6856C19.8163 37.1204 19.4221 36.4021 19.248 36.0895C19.0739 35.7768 18.7025 35.0979 18.4226 34.5808C18.1427 34.0637 17.8737 33.5718 17.8249 33.4876C17.5329 32.9844 17.4608 32.7731 17.443 32.3678C17.4213 31.8744 17.4915 31.6104 17.7558 31.1915C17.8619 31.0233 18.2233 30.4429 18.5588 29.9017C18.8943 29.3606 19.4254 28.5046 19.739 27.9995C20.0526 27.4944 20.5623 26.6679 20.8718 26.1629C21.1812 25.6578 21.9763 24.374 22.6387 23.31C24.4055 20.4716 24.9802 19.5455 25.3993 18.861C25.6057 18.5238 25.9354 17.9954 26.1319 17.6868C26.3283 17.3782 26.4891 17.0978 26.4891 17.0637C26.4891 17.0105 25.9913 17.0015 23.0422 17.0015C20.3508 17.0015 19.58 17.0135 19.5258 17.0562Z" fill="#D6FF00"/>
</svg>
