<svg width="45" height="40" viewBox="0 0 45 40" fill="none" xmlns="http://www.w3.org/2000/svg">
<path d="M22.1206 0.625548C21.8295 1.18679 21.1319 2.48465 19.8643 4.82315C19.6338 5.23823 19.3062 5.8404 19.1303 6.16194L18.8028 6.73487L18.9787 6.98041C19.1303 7.19673 19.3911 7.6235 19.8461 8.42444C20.2706 9.16106 20.3192 9.51184 20.1129 10.2894C19.7793 11.5113 19.0879 12.9728 18.3054 14.1187L17.8687 14.7618L17.8626 16.3227C17.8626 17.188 17.8808 17.8895 17.899 17.8895C18.0325 17.8895 19.3305 16.2759 19.8703 15.4341C20.8408 13.9258 21.8113 11.6282 22.1388 10.0555C22.345 9.07922 22.248 8.64659 21.5201 7.30196L21.1501 6.61795L21.3321 6.3081C21.4352 6.13271 21.69 5.6767 21.8962 5.29085C22.1024 4.905 22.3329 4.50161 22.3996 4.39053L22.5209 4.1976L22.9637 5.00438C23.2124 5.45455 23.5096 6.00409 23.6309 6.22625L23.8554 6.63549L23.449 7.42473C22.6665 8.9506 22.6362 9.31891 23.176 11.0962C23.9342 13.6101 25.2989 15.9778 26.8335 17.4277L27.252 17.8252L27.1368 17.9597C27.0701 18.0415 26.882 18.2578 26.7122 18.4507C26.5363 18.6378 26.1239 19.1055 25.7903 19.4797C24.9896 20.38 24.1222 21.3388 23.7401 21.7422C23.1942 22.321 22.6241 22.9757 22.6241 23.0167C22.6241 23.0927 22.8182 23.3382 23.4126 24.0339C24.098 24.8232 24.9593 25.8287 25.8388 26.8693C26.1845 27.2844 26.512 27.6586 26.5545 27.7053C26.6394 27.793 28.0042 29.4008 28.4469 29.9386C28.5986 30.1198 29.1323 30.7512 29.6358 31.3417C30.1331 31.9322 30.9277 32.8676 31.3948 33.4171C31.8557 33.9608 32.8748 35.1535 33.6511 36.0596C34.4275 36.9658 35.0765 37.7492 35.0947 37.796C35.1251 37.872 34.8218 37.8837 32.7049 37.8837H30.2787L29.1081 36.463C28.4651 35.6855 27.7312 34.8085 27.4825 34.5162C27.2278 34.2239 26.6697 33.5516 26.233 33.0313C23.5703 29.8158 23.3277 29.5235 22.248 28.2374C21.8052 27.7053 21.2897 27.0856 21.1077 26.8635C20.9257 26.6355 20.6346 26.2906 20.4647 26.0918L20.1493 25.7293L19.1546 26.8167C18.6148 27.4189 17.893 28.214 17.5594 28.5881C17.2258 28.9564 16.5404 29.7106 16.0369 30.2543C15.5335 30.8039 14.9573 31.4411 14.751 31.6808L14.375 32.1076V34.9956V37.8837L12.1186 37.872L9.85619 37.8544L9.83799 34.6507L9.82586 31.4469L9.68635 31.4879C9.43767 31.5639 8.09113 32.131 7.8849 32.2479L7.67261 32.3648V36.1824V40L10.3778 39.9942C11.8639 39.9942 13.8594 39.9883 14.8178 39.9883H16.5586V36.3519V32.7156L16.7345 32.5694C16.8315 32.4876 17.3046 31.9673 17.7899 31.4236C19.3608 29.658 19.9492 29.0266 20.0462 29.0266C20.1493 29.0266 21.3685 30.4765 26.4757 36.6559C28.0102 38.5151 29.0535 39.7545 29.2294 39.9474C29.2779 39.9942 39.662 40.0117 39.7106 39.9708C39.7227 39.9532 39.4437 39.6025 39.0919 39.1932C38.4793 38.4741 36.4777 36.1064 34.9977 34.3525C34.6156 33.9024 33.8392 32.9845 33.269 32.3239C32.159 31.0202 31.4797 30.2251 30.3272 28.8512C28.9322 27.185 28.7138 26.9336 27.9314 26.0216C27.5007 25.5189 26.8153 24.7179 26.415 24.2385C26.0147 23.7591 25.6204 23.2914 25.5476 23.1979C25.4203 23.0576 25.4142 23.0167 25.4809 22.929C25.5598 22.8354 26.3786 21.9293 26.4453 21.865C26.4635 21.8474 26.597 21.6896 26.7486 21.5142C26.8942 21.3388 27.1247 21.0757 27.2642 20.9296C28.0284 20.0994 28.4833 19.5966 29.9451 17.9421C30.7822 16.995 31.7405 15.9252 32.1894 15.4516C32.438 15.1885 32.6989 14.9021 32.7716 14.8085C32.8444 14.7208 32.9415 14.6039 32.9961 14.5571C33.0507 14.5104 33.2569 14.2824 33.451 14.0602C33.6451 13.8322 33.9605 13.4814 34.1546 13.271C34.5246 12.8617 35.398 11.8913 35.6528 11.6048C35.7377 11.5054 35.9014 11.3242 36.0227 11.1956C36.1441 11.0669 36.3685 10.8156 36.5201 10.6402C37.248 9.81584 37.709 9.29553 38.0001 8.97398C38.637 8.26659 39.5286 7.27273 39.7834 6.96872L40.0442 6.66472H34.8885H29.7389L28.8655 7.64104C28.3863 8.17305 27.9132 8.70506 27.8101 8.82198C27.4219 9.27214 26.415 10.3771 26.3725 10.3946C26.2694 10.4414 26.3361 10.6986 26.5909 11.254C27.1065 12.3999 27.1671 12.511 27.252 12.511C27.3309 12.511 27.6948 12.1251 28.5379 11.1605C28.8412 10.8097 29.8541 9.68723 29.9027 9.6463C29.9209 9.62876 30.0846 9.44753 30.2605 9.23707C30.4425 9.0266 30.6366 8.82198 30.6851 8.78106C30.7518 8.72844 31.322 8.7109 33.0688 8.7109C34.3305 8.7109 35.3616 8.72844 35.3616 8.74598C35.3616 8.78106 35.1857 8.98568 34.1182 10.1783C33.7846 10.5525 33.3782 11.0085 33.2084 11.1956C33.0446 11.3826 32.8808 11.5639 32.8444 11.5989C32.8141 11.634 32.6079 11.862 32.3895 12.1017C32.1712 12.3414 31.9831 12.5519 31.9649 12.5694C31.9467 12.587 31.7708 12.7799 31.5707 13.0079C31.1097 13.5224 29.6176 15.1827 29.4295 15.3756C29.3568 15.4575 29.1505 15.6855 28.9746 15.8842C28.8048 16.083 28.641 16.2467 28.6168 16.2467C28.5986 16.2526 28.3802 16.0772 28.1376 15.855C26.9124 14.7501 25.5901 12.47 24.9653 10.3829C24.6621 9.37737 24.7591 9.02075 25.7781 7.35457C25.9783 7.03303 26.142 6.74657 26.142 6.71733C26.142 6.65303 24.6742 3.8936 24.1829 3.04005C23.8917 2.53727 23.3216 1.49664 22.9091 0.713242C22.7029 0.321543 22.5149 -1.98372e-07 22.4906 -1.98372e-07C22.4724 -1.98372e-07 22.3026 0.28062 22.1206 0.625548Z" fill="#7C3AED"/>
<path d="M7.64233 10.9325V15.1944L7.96381 15.4224C8.37626 15.7147 9.75313 16.6033 9.79559 16.6033C9.81378 16.6033 9.82591 14.8261 9.82591 12.6571V8.71089L12.1187 8.72259L14.4054 8.74013L14.4357 17.7141C14.46 25.7118 14.4782 26.6764 14.557 26.5653C14.648 26.4426 16.2371 24.6653 16.8316 24.0281C17.2076 23.6188 18.4268 22.2683 19.0758 21.5376C19.3427 21.2394 19.9735 20.5437 20.4709 19.9941C20.9743 19.4446 21.502 18.86 21.6476 18.6904C21.7931 18.5209 22.0964 18.1877 22.3208 17.948C23.1761 17.0301 24.0798 16.007 24.0798 15.9544C24.0798 15.9018 23.6916 15.247 23.2064 14.4811C23.0851 14.2941 22.9638 14.1479 22.9395 14.1596C22.8667 14.183 21.2109 16.0012 19.6217 17.8018C19.4579 17.9889 19.0333 18.4624 18.6815 18.8483C18.3297 19.24 17.8991 19.7252 17.7171 19.9357C17.0681 20.684 16.6557 21.1049 16.6071 21.0582C16.5768 21.0289 16.5647 17.7843 16.5707 13.8381L16.5889 6.66471H12.1187H7.64233V10.9325Z" fill="#7C3AED"/>
<path d="M0 7.60637C0 7.68822 0.072786 7.94545 0.818842 10.5236C1.00687 11.1843 1.26769 12.0904 1.39506 12.5406C1.52244 12.9908 1.84998 14.1366 2.12292 15.0837C2.38981 16.0308 2.69308 17.0948 2.79619 17.4514C2.89931 17.8022 3.11767 18.5681 3.2875 19.1469C3.45127 19.7256 3.65143 20.433 3.73028 20.7253C3.87585 21.2749 4.27618 22.6546 4.64617 23.9115C4.88879 24.73 5.70157 27.6064 5.75009 27.8168C5.76222 27.8928 5.81075 27.9688 5.84714 27.9805C5.88353 27.9922 6.51435 27.7642 7.24221 27.4777C9.22562 26.6827 11.0574 26.1097 12.5556 25.8116L13.1925 25.6888V24.6131V23.5315L12.9802 23.5491C12.2826 23.6134 9.6684 24.3617 7.90941 24.9989C7.57581 25.1159 7.30286 25.186 7.27253 25.1568C7.24221 25.1276 7.02991 24.4377 6.79942 23.6192C6.14435 21.2749 6.02911 20.8832 5.83501 20.2284C5.7319 19.8893 5.58026 19.3632 5.49534 19.0592C5.41649 18.7552 5.28911 18.3108 5.22239 18.0828C5.08289 17.621 5.06469 17.4807 5.14354 17.4807C5.17387 17.4807 5.47715 17.6853 5.82894 17.9367C6.99352 18.7727 8.28547 19.6262 9.04366 20.0589C10.1294 20.6844 10.1354 20.6844 10.4145 20.8247L10.6631 20.9475L10.8997 20.778C11.0331 20.6844 11.2879 20.4915 11.4638 20.3453C11.6397 20.1992 11.9794 19.9244 12.2159 19.7373C12.4525 19.5444 12.7739 19.2696 12.9377 19.1235L13.2228 18.8604V17.4865V16.1068L12.4828 16.8434C11.5972 17.7145 10.6025 18.5038 10.4569 18.4512C10.2689 18.381 9.1589 17.7145 8.62514 17.3521C7.04204 16.2705 5.47108 15.0545 4.96158 14.5108C4.73715 14.2711 4.73715 14.2652 4.81601 14.0489C4.94338 13.704 5.26485 12.9323 5.47108 12.4938C5.68337 12.0144 5.72583 12.0904 4.82814 11.3772C4.5006 11.12 4.04569 10.7575 3.82126 10.5821C3.59684 10.4067 2.9539 9.89225 2.38981 9.44209C1.83178 8.99193 1.10999 8.41315 0.788515 8.16176C0.473109 7.90453 0.163768 7.65898 0.109179 7.61221C0.0181965 7.53621 0 7.53621 0 7.60637Z" fill="#7C3AED"/>
<path d="M43.6894 8.58268C41.621 10.2372 39.6437 11.8449 39.5042 11.991C39.3768 12.1314 39.3768 12.1314 39.486 12.3652C39.5466 12.4938 39.7225 12.8855 39.8802 13.2421C40.0319 13.5929 40.2017 13.9437 40.2502 14.0138C40.3716 14.2009 40.3594 14.2594 40.135 14.464C40.0198 14.5634 39.7165 14.8382 39.4557 15.072C38.9947 15.4929 37.5632 16.5745 36.6959 17.1591C36.4593 17.317 36.15 17.5333 36.0105 17.6268C35.871 17.7262 35.4888 17.9601 35.1552 18.1413L34.5547 18.4804L34.3182 18.3225C34.1908 18.2348 33.7662 17.8958 33.3841 17.5742C32.4803 16.82 32.5228 16.8434 32.4197 16.9779C32.3712 17.0364 32.2438 17.1825 32.1346 17.2994C31.7343 17.7204 31.2976 18.2524 31.2976 18.3167C31.2976 18.5447 34.1726 20.8715 34.4456 20.8715C34.5669 20.8715 35.04 20.6259 36.0408 20.0472C36.8718 19.5678 37.7634 18.9773 38.928 18.1354C39.4375 17.7671 39.8742 17.4807 39.8924 17.4982C39.9348 17.5391 39.765 18.1998 39.2252 20.053C39.0068 20.8072 38.7157 21.8478 38.5822 22.3623C38.2911 23.4848 37.8058 25.1392 37.7634 25.186C37.7452 25.2036 37.6118 25.1685 37.4722 25.11C36.0469 24.5429 33.6328 23.8589 31.9951 23.5666C30.8609 23.362 28.3983 23.0931 27.6097 23.0931H27.0457L27.5491 23.6777C27.8281 23.9992 28.2042 24.4494 28.3922 24.6774C28.9381 25.338 28.835 25.2912 29.9632 25.4023C32.5471 25.6537 35.8467 26.5657 38.6004 27.7934C38.8612 27.9104 39.116 28.0039 39.1585 28.0039C39.2009 28.0039 39.2676 27.9045 39.298 27.7817C39.3283 27.6648 39.4314 27.3024 39.5163 26.9808C39.6073 26.6593 39.7286 26.2091 39.7893 25.987C39.9591 25.3614 40.1471 24.6949 40.3048 24.1746C40.3837 23.9174 40.5171 23.4555 40.602 23.1515C40.8265 22.3214 41.5119 19.9069 41.7848 18.9715C41.9183 18.5213 42.1427 17.7437 42.2761 17.2468C42.4156 16.7499 42.6158 16.025 42.731 15.6391C43.2951 13.6981 43.4892 13.0141 43.6348 12.4529C43.7258 12.1138 43.8228 11.7747 43.8532 11.6929C43.8835 11.611 44.0048 11.1901 44.1261 10.7575C44.6053 9.05038 44.6599 8.83992 44.8297 8.27868C45.0177 7.65898 45.0299 7.60052 44.9631 7.60052C44.9328 7.60636 44.3627 8.04483 43.6894 8.58268Z" fill="#7C3AED"/>
<path d="M30.2665 26.8112C30.2665 26.8813 32.1165 29.0503 32.3349 29.2374C32.3955 29.29 32.6442 29.3835 32.8868 29.4361C33.3903 29.5531 35.3555 30.1845 35.9984 30.43C36.235 30.5236 36.8294 30.7749 37.3268 30.9913C37.8302 31.2134 38.2427 31.3829 38.2609 31.3713C38.273 31.3596 38.364 31.038 38.461 30.6522C38.5581 30.2722 38.6794 29.8395 38.7279 29.6875C38.7886 29.4771 38.7946 29.4011 38.74 29.3601C38.6733 29.3134 38.4731 29.2198 37.3935 28.7638C35.4889 27.9512 33.736 27.4309 31.3947 26.9866C30.1634 26.7469 30.2665 26.7644 30.2665 26.8112Z" fill="#7C3AED"/>
<path d="M11.9789 27.3255C10.6991 27.647 9.69826 27.9627 8.49123 28.4245C8.08484 28.5765 6.31371 29.3424 6.25306 29.3892C6.22273 29.4067 6.71403 31.3418 6.75649 31.3827C6.77469 31.3944 6.99911 31.3067 7.25993 31.184C8.90974 30.4298 10.6809 29.8218 12.3004 29.4593L13.1617 29.2606V28.1673C13.1617 27.1559 13.1556 27.0682 13.0585 27.0741C12.9979 27.0799 12.5127 27.191 11.9789 27.3255Z" fill="#7C3AED"/>
</svg>
